<svg width="31" height="30" viewBox="0 0 31 30" fill="none" xmlns="http://www.w3.org/2000/svg">
<path d="M14.7 6.7999V1.8999C14.3 1.8999 13.9 1.8999 13.5 1.8999C12.2 2.0999 11 2.2999 9.89995 2.6999C9.29995 2.8999 8.69995 3.1999 8.09995 3.4999C4.09995 5.4999 1.29995 9.2999 0.799951 13.6999C0.799951 14.0999 0.699951 14.5999 0.699951 14.9999C0.699951 15.4999 0.699951 15.8999 0.799951 16.2999C1.29995 20.6999 4.09995 24.4999 8.09995 26.4999C8.69995 26.7999 9.29995 26.9999 9.89995 27.1999C11 27.5999 12.2 27.7999 13.4 27.8999C13.8 27.8999 14.2 27.9999 14.6 27.9999V23.0999C9.89995 23.0999 5.99995 19.4999 5.99995 14.9999C5.99995 10.4999 9.89995 6.7999 14.7 6.7999Z" fill="white"/>
<path d="M28.4 17.2999C28 16.9999 27.8 16.7999 27.6 16.6999C27.5 16.4999 27.4 16.3999 27.3 16.1999C27.2 15.9999 27.2 15.6999 27.2 14.9999C27.2 14.3999 27.2 13.9999 27.3 13.7999C27.4 13.5999 27.4 13.4999 27.6 13.2999C27.7 13.0999 27.9 12.9999 28.4 12.6999L29.6 11.7999C29.8 11.6999 29.9 11.5999 30 11.4999C29.4 9.4999 28.3 7.6999 26.8 6.1999C26.6 6.2999 26.5 6.2999 26.2 6.3999L24.5 6.9999C24 7.1999 23.8 7.1999 23.5 7.2999C23.3 7.2999 23.2 7.2999 22.9 7.2999C22.7 7.1999 22.4 7.0999 21.8 6.7999C21.8 6.7999 21.7 6.7999 21.7 6.6999C21.1 6.3999 20.8 6.1999 20.6 6.0999C20.4 5.9999 20.4 5.8999 20.3 5.6999C20.2 5.4999 20.2 5.2999 20.1 4.7999L19.8 3.3999C20 2.7999 20 2.4999 19.9 2.2999C18.9 2.0999 17.8 1.8999 16.6 1.8999V6.7999C21.4 6.7999 25.3 10.4999 25.3 14.9999C25.3 19.4999 21.4 23.0999 16.6 23.0999V27.9999C17.7 27.9999 18.8 27.8999 19.9 27.5999C20 27.3999 20 27.0999 20.1 26.6999L20.4 25.2999C20.5 24.7999 20.5 24.5999 20.6 24.3999C20.7 24.1999 20.8 24.0999 20.9 23.9999C21.1 23.8999 21.4 23.6999 22 23.3999C22 23.3999 22.1 23.3999 22.1 23.2999C22.7 22.9999 23 22.7999 23.2 22.7999C23.4 22.6999 23.5 22.6999 23.8 22.7999C24 22.7999 24.3 22.8999 24.8 23.0999L26.5 23.6999C26.7 23.7999 26.9 23.7999 27.1 23.8999C28.6 22.3999 29.7 20.5999 30.3 18.5999C30.2 18.4999 30 18.3999 29.9 18.2999L28.4 17.2999Z" fill="white"/>
<path d="M20.7 17.4H16.6V12.5H20.7C22.1 12.5 23.1 13.6 23.1 14.9C23.1 16.4 22 17.4 20.7 17.4Z" fill="white"/>
</svg>
