<svg width="24" height="26" viewBox="0 0 24 26" fill="none" xmlns="http://www.w3.org/2000/svg">
<g clip-path="url(#clip0_1220_2)">
<path d="M23.88 7.33236V20.0824C23.8716 20.2367 23.8269 20.3868 23.7496 20.5206C23.6723 20.6544 23.5645 20.7681 23.435 20.8524L23.0175 21.1024L19.8375 22.9399L17.69 24.1899L17.245 24.4399V10.6499L5.3075 3.74986L10.9775 0.482364L11.5 0.184864C11.6379 0.115012 11.7904 0.0786133 11.945 0.0786133C12.0996 0.0786133 12.2521 0.115012 12.39 0.184864L20.25 4.72486L23.8775 6.81986V7.33236H23.88ZM14.59 12.1799L12.1425 10.7649L6.415 7.45736C6.27672 7.38865 6.12441 7.35289 5.97 7.35289C5.81559 7.35289 5.66328 7.38865 5.525 7.45736L0.4425 10.3924L0 10.6499L8.6225 15.6274V25.5849L13.6975 22.6524L14.145 22.4024C14.2744 22.3179 14.382 22.2042 14.4593 22.0704C14.5367 21.9367 14.5814 21.7866 14.59 21.6324V12.1799ZM0 20.6074L5.965 24.0524V17.1574L0 20.6074Z" fill="#5CE500"/>
</g>
<defs>
<clipPath id="clip0_1220_2">
<rect width="24" height="26" fill="white"/>
</clipPath>
</defs>
</svg>
