<svg width="343" height="343" viewBox="0 0 343 343" fill="none" xmlns="http://www.w3.org/2000/svg">
<path fill-rule="evenodd" clip-rule="evenodd" d="M115 118V157.982H122.955H130.91V140.49V122.998H144.094H157.278L157.388 140.386L157.497 157.773L165.347 157.887L173.198 158V118V78L165.347 78.1133L157.497 78.2266L157.387 93.1156L157.277 108.005H144.093H130.91V93.0115V78.0183H122.955H115V118ZM192.232 78.5389C192.122 78.8255 192.081 96.7701 192.14 118.416L192.248 157.773L210.984 157.882L229.721 157.99V151.356C229.721 147.708 229.835 144.426 229.975 144.064C230.203 143.473 229.057 143.405 218.88 143.405H207.53V110.712V78.0183H199.981C194.327 78.0183 192.381 78.1491 192.232 78.5389ZM285.833 42.875H57.1667C49.5859 42.875 42.3157 45.8864 36.9552 51.2469C31.5948 56.6073 28.5834 63.8776 28.5834 71.4583V271.542C28.5834 279.122 31.5948 286.393 36.9552 291.753C42.3157 297.114 49.5859 300.125 57.1667 300.125H285.833C293.414 300.125 300.684 297.114 306.045 291.753C311.405 286.393 314.417 279.122 314.417 271.542V71.4583C314.417 63.8776 311.405 56.6073 306.045 51.2469C300.684 45.8864 293.414 42.875 285.833 42.875ZM173.025 191.976V188.488V185L195.931 185.132C211.672 185.224 219.428 185.41 220.729 185.729C226.712 187.196 230.258 190.596 231.239 195.806C231.748 198.513 231.22 201.296 229.422 205.384C228.644 207.152 224.847 216.242 220.983 225.584C214.653 240.889 212.238 246.019 210.098 248.711L209.398 249.591L206.679 247.996L203.959 246.401L201.685 248.669L199.412 250.936L200.127 251.96C200.808 252.935 202.517 256.157 202.517 256.467C202.517 257.087 194.34 261.899 193.286 261.899C192.978 261.899 192.074 260.725 191.278 259.291C190.047 257.073 189.706 256.719 188.997 256.929C188.539 257.064 187.236 257.383 186.1 257.638L184.036 258.1V261.353V264.606L181.088 264.884C179.468 265.037 176.997 265.039 175.599 264.888L173.056 264.614L172.942 261.427L172.829 258.24L169.931 257.5C168.337 257.093 166.887 256.851 166.708 256.962C166.529 257.073 165.802 258.23 165.091 259.532C164.381 260.834 163.62 261.897 163.399 261.894C162.19 261.879 154.543 257.269 154.545 256.556C154.546 256.334 155.165 255.119 155.922 253.855C156.678 252.59 157.297 251.426 157.297 251.266C157.297 251.107 156.279 249.963 155.036 248.725L152.775 246.472L150.155 248.006L147.535 249.541L146.773 248.686C145.76 247.549 143.317 243.44 142.571 241.618L141.974 240.16L144.583 238.646C146.017 237.813 147.169 236.953 147.142 236.735C147.115 236.517 146.791 235.046 146.422 233.465L145.749 230.592H142.535H139.321L139.062 227.776C138.919 226.227 138.918 223.819 139.059 222.426L139.317 219.892L142.507 219.89L145.697 219.887L146.343 217.215C146.699 215.745 147.053 214.296 147.13 213.994C147.249 213.526 145.997 212.58 142.416 210.428C141.997 210.176 142.147 209.591 143.14 207.608C144.375 205.144 147.037 200.87 147.339 200.87C147.424 200.87 148.719 201.539 150.218 202.356L152.943 203.842L155.296 201.465L157.648 199.087L156.097 196.511C155.244 195.094 154.546 193.8 154.545 193.635C154.543 193.004 162.72 188.189 163.794 188.189C163.872 188.189 164.609 189.436 165.433 190.96C166.257 192.484 167.107 193.659 167.324 193.572C167.54 193.484 168.912 193.09 170.371 192.694L173.025 191.976ZM46.208 262.593C46.5116 261.292 58.9912 188.274 58.9912 187.798C58.9912 187.541 61.5743 187.399 66.1675 187.404L73.3438 187.411L81.9845 213.783L90.6251 240.154L92.4969 234.482C93.5259 231.362 97.4892 219.491 101.304 208.103L108.24 187.396H115.27C119.69 187.396 122.3 187.543 122.3 187.792C122.3 188.232 134.357 260.665 134.718 262.395L134.946 263.484H127.915H120.885L117.051 240.599C114.942 228.011 113.093 217.404 112.942 217.026C112.763 216.581 109.901 224.584 104.792 239.813L96.9186 263.286L90.5728 263.395L84.227 263.504L76.4259 239.906C71.2708 224.312 68.53 216.547 68.3444 217.01C68.1903 217.397 66.3736 227.61 64.3076 239.707C62.242 251.804 60.4627 262.102 60.3538 262.593C60.1575 263.477 60.0974 263.484 53.078 263.484H46L46.208 262.593ZM237.121 263.597V225.452V187.307L250.785 187.503C265.41 187.713 268.803 188.061 274.741 189.959C278.953 191.305 282.384 193.418 285.703 196.709C293.367 204.308 297.015 213.906 297 226.431C296.982 240.616 291.612 251.789 281.65 258.367C275.611 262.355 271.592 263.03 251.965 263.353L237.121 263.597ZM201.101 201.188C199.534 198.135 201.524 194.569 205.618 193.095C211.293 191.051 217.968 195.367 216.638 200.222C215.768 203.396 212.93 205.287 208.81 205.44C207.404 205.491 205.754 205.733 205.146 205.976C204.537 206.219 203.525 206.418 202.898 206.418H201.757L202.532 205.094L203.307 203.771L202.479 203.015C202.023 202.599 201.403 201.777 201.101 201.188ZM212.984 206.766C216.555 205.417 219.016 202.264 219.047 199.001L219.061 197.502L220.028 198.691C221.716 200.766 221.758 203.302 220.133 205.093C219.49 205.802 219.436 206.094 219.817 206.811C220.415 207.938 220.278 208.025 218.531 207.627C217.662 207.43 216.432 207.457 215.504 207.695C214.643 207.915 213.271 207.968 212.455 207.811L210.971 207.527L212.984 206.766ZM251.67 249.337V225.5V201.663L256.683 201.668C273.99 201.686 282.31 209.665 282.334 226.269C282.345 233.629 280.515 239.242 276.714 243.502C273.103 247.55 269.324 248.72 258.649 249.093L251.67 249.337ZM158.78 214.741C161.81 209.451 167.995 205.1 174.205 203.892C176.597 203.427 183.865 203.978 186.167 204.799C191.825 206.817 195.718 210.289 198.375 215.685C201.503 222.035 201.642 227.776 198.819 233.99C196.104 239.967 190.494 244.554 184.056 246.06C181.046 246.764 174.923 246.662 171.846 245.857C158.634 242.401 151.995 226.588 158.78 214.741ZM169.637 213.9C168.638 212.878 167.94 211.847 168.087 211.608C168.522 210.899 171.157 211.116 172.558 211.977C174.056 212.897 175.093 215.054 174.933 216.919C174.834 218.077 175.314 218.728 179.799 223.519C184.724 228.779 184.791 228.833 186.321 228.686C189.267 228.403 191.902 230.803 191.893 233.763C191.884 236.227 191.433 236.297 189.339 234.154C187.376 232.146 186.534 231.799 185.687 232.653C184.799 233.548 185.213 234.783 186.985 236.537C187.958 237.499 188.754 238.414 188.754 238.569C188.754 239.305 186.34 239.323 184.715 238.599C182.731 237.714 181.676 235.937 181.676 233.479C181.676 232.035 181.338 231.571 176.761 226.739C171.908 221.615 171.825 221.55 170.142 221.575C168.148 221.605 166.327 220.647 165.411 219.084C164.739 217.938 164.529 214.936 165.096 214.583C165.276 214.471 166.198 215.173 167.144 216.145C168.867 217.914 170.096 218.327 170.981 217.435C171.805 216.605 171.501 215.809 169.637 213.9ZM184.822 216.208C184.822 215.325 186.987 212.672 188.261 211.994C189.294 211.445 189.724 211.198 190.08 211.279C190.367 211.344 190.606 211.62 191.074 212.121L191.957 213.069L190.976 215.02C190.241 216.481 189.606 217.147 188.44 217.677C187.585 218.065 185.852 219.436 184.588 220.723C183.325 222.01 182.092 223.063 181.848 223.063C181.604 223.063 181.079 222.7 180.681 222.256C179.968 221.463 179.996 221.41 182.389 218.976C183.727 217.616 184.822 216.37 184.822 216.208ZM164.768 236.4C164.768 235.436 165.557 234.42 169.17 230.729C171.591 228.256 173.677 226.233 173.806 226.233C173.936 226.233 174.829 227.042 175.792 228.031L177.543 229.829L172.747 234.617C168.361 238.997 167.857 239.383 166.851 239.139C165.456 238.799 164.768 237.894 164.768 236.4Z" fill="black"/>
</svg>
