<svg width="512" height="512" viewBox="0 0 512 512" fill="none" xmlns="http://www.w3.org/2000/svg">
<g clip-path="url(#clip0_1069_158)">
<path d="M55.4998 189.5C39.9023 181.391 15.9999 173.5 14 172C12 170.5 44.0001 93 96.9999 54.9998C150 16.9995 193.5 1.81096 241.5 0.499346C333 -2.00093 374.5 28.5 397.5 42.9998C468 97 485.5 130.5 504 192.5C514.964 241.154 515.085 268.88 504 318.5C489.162 373.055 470.006 398.321 432 441.5H79.9999C62.0386 423.713 53.7575 413.369 41 394.5C159.864 393.475 320 395.5 339 393.5C357 391.605 361 361 370 357C383 354.5 395.5 323 395.5 318.5C396.5 314 394.903 289.61 392.5 289.5C364.674 261.316 357.5 245.5 352 211.5C349.5 190.5 294.5 147 240 134C240.79 104.777 243.663 89.0351 256.5 63C238.5 93.4852 234.536 111.884 233.5 146C204.143 157.756 191.402 167.209 171 186.5C162.5 111 216.5 70 256.5 63C256.58 56.9984 255.118 55.1153 250 53.9998C190.5 65.5 153.851 84.5785 124 109C97.9889 130.279 75.4997 155.5 55.4998 189.5Z" fill="black"/>
<path d="M143 485.5C127.461 477.36 119.149 472.313 105 462.5H407C393.53 471.991 385.055 476.965 369 485.5H143Z" fill="black"/>
<path d="M278.5 265.5C269.5 267.5 267.794 255.83 271.5 253.5C291.868 243.966 303.631 242.864 325.5 251.5C334.5 256.5 331 267 323.5 266C318 264.5 311.782 259.475 301.5 259.5C296.874 259.242 292 260 278.5 265.5Z" fill="black"/>
</g>
<defs>
<clipPath id="clip0_1069_158">
<rect width="512" height="512" fill="white"/>
</clipPath>
</defs>
</svg>
