<svg width="513" height="513" viewBox="0 0 513 513" fill="none" xmlns="http://www.w3.org/2000/svg">
<path fill-rule="evenodd" clip-rule="evenodd" d="M8.03966 2.12029C6.03202 3.26898 3.50846 5.39531 2.43173 6.84682C0.479243 9.47881 0.473633 9.72649 0.227819 103.838C-0.0441649 207.736 -0.347922 202.075 5.66938 205.187C8.0649 206.425 12.1923 206.607 32.6856 206.371C56.8277 206.094 56.8781 206.089 59.2858 203.826C60.6121 202.579 62.115 200.056 62.6253 198.218C63.1992 196.153 63.5553 169.795 63.5581 129.218L63.5637 63.5588H129.954C203.124 63.5588 201.048 63.7196 204.672 57.7733C206.432 54.888 206.558 53.1075 206.556 31.3133C206.554 9.78725 206.412 7.73101 204.747 5.20557C203.752 3.69891 201.968 1.92587 200.78 1.26694C199.065 0.315461 179.399 0.0649787 105.156 0.0509589L11.6904 0.0332031L8.03966 2.12029ZM127.965 119.325C122.595 122.659 122.938 114.247 122.638 250.022C122.487 318.906 122.617 377.045 122.927 379.221C123.306 381.877 124.418 384.103 126.312 385.998L129.133 388.818H156.094H183.055L185.931 385.942L188.807 383.066V309.581C188.807 267.21 189.156 236.472 189.63 236.984C190.082 237.472 200.015 255.537 211.701 277.127C223.388 298.718 234.249 317.754 235.838 319.43C237.428 321.105 240.219 322.891 242.041 323.396C246.443 324.62 264.99 324.574 269.471 323.33C276.34 321.422 277.753 319.308 299.08 278.997C302.343 272.828 306.969 264.206 309.36 259.836C311.751 255.467 315.361 248.633 317.384 244.652C319.407 240.67 321.368 237.411 321.745 237.408C322.122 237.406 322.542 270.201 322.68 310.287L322.93 383.168L325.52 385.76L328.111 388.351L355.118 388.625L382.125 388.899L385.473 385.957L388.823 383.017V253.872C388.823 138.357 388.669 124.508 387.364 122.645C384.203 118.131 382.049 117.769 358.369 117.769C334.464 117.769 330.557 118.335 326.836 122.342C325.592 123.682 320.361 132.349 315.211 141.602C310.06 150.855 301.958 165.366 297.206 173.848C292.453 182.33 286.568 192.845 284.128 197.214C281.688 201.584 275.795 212.099 271.032 220.581C266.27 229.063 261.067 238.414 259.471 241.361C257.875 244.309 256.33 246.727 256.036 246.735C255.743 246.744 253.595 243.282 251.264 239.04C248.932 234.799 243.128 224.389 238.367 215.907C233.605 207.425 227.713 196.911 225.273 192.541C222.832 188.172 217.066 177.867 212.457 169.642C207.848 161.417 200.805 148.799 196.807 141.602C182.74 116.285 185.497 117.808 153.758 117.815C133.902 117.818 130.027 118.044 127.965 119.325ZM455.273 306.816C454.038 307.451 452.145 309.158 451.067 310.609C449.126 313.224 449.107 313.868 448.857 380.942L448.606 448.636H382.233C309.082 448.636 311.157 448.475 307.533 454.422C305.774 457.305 305.646 459.094 305.643 480.771C305.639 502.434 305.768 504.236 307.517 507.065C308.55 508.736 310.547 510.58 311.956 511.163C313.821 511.934 340.073 512.154 408.451 511.974L502.384 511.725L505.805 509.108C512.628 503.888 512.198 510.774 512.198 406.637C512.198 303.454 512.58 310.134 506.497 306.988C502.988 305.173 458.76 305.025 455.273 306.816Z" fill="black" fill-opacity="0.915"/>
</svg>
