<svg width="128" height="128" viewBox="0 0 128 128" fill="none" xmlns="http://www.w3.org/2000/svg">
<g clip-path="url(#clip0_1140_11)">
<path d="M64 128C99.3462 128 128 99.3462 128 64C128 28.6538 99.3462 0 64 0C28.6538 0 0 28.6538 0 64C0 99.3462 28.6538 128 64 128Z" fill="#26A17B"/>
<path fill-rule="evenodd" clip-rule="evenodd" d="M71.688 69.5319V69.5239C71.248 69.5559 68.9799 69.6919 63.9199 69.6919C59.8799 69.6919 57.0359 69.5719 56.0359 69.5239V69.5359C40.4839 68.8519 28.8759 66.1439 28.8759 62.9039C28.8759 59.6679 40.4839 56.9599 56.0359 56.2639V66.8399C57.0519 66.9119 59.9639 67.0839 63.9879 67.0839C68.8159 67.0839 71.236 66.8839 71.688 66.8439V56.2719C87.208 56.9639 98.7879 59.6719 98.7879 62.9039C98.7879 66.1439 87.208 68.8439 71.688 69.5319ZM71.688 55.1719V45.7079H93.3439V31.2759H34.38V45.7079H56.0359V55.1679C38.4359 55.9759 25.2 59.4639 25.2 63.6399C25.2 67.8159 38.4359 71.2999 56.0359 72.1119V102.44H71.688V72.1039C89.26 71.2959 102.464 67.8119 102.464 63.6399C102.464 59.4679 89.26 55.9839 71.688 55.1719Z" fill="white"/>
<g clip-path="url(#clip1_1140_11)">
<path d="M104 128C117.255 128 128 117.255 128 104C128 90.7452 117.255 80 104 80C90.7452 80 80 90.7452 80 104C80 117.255 90.7452 128 104 128Z" fill="#627EEA"/>
<path d="M104.747 86V99.305L115.992 104.33L104.747 86Z" fill="white" fill-opacity="0.602"/>
<path d="M104.747 86L93.5 104.33L104.747 99.305V86Z" fill="white"/>
<path d="M104.747 112.952V121.992L116 106.424L104.747 112.952Z" fill="white" fill-opacity="0.602"/>
<path d="M104.747 121.992V112.95L93.5 106.424L104.747 121.992Z" fill="white"/>
<path d="M104.747 110.86L115.992 104.33L104.747 99.3081V110.86Z" fill="white" fill-opacity="0.2"/>
<path d="M93.5 104.33L104.747 110.86V99.3081L93.5 104.33Z" fill="white" fill-opacity="0.602"/>
</g>
</g>
<defs>
<clipPath id="clip0_1140_11">
<rect width="128" height="128" fill="white"/>
</clipPath>
<clipPath id="clip1_1140_11">
<rect width="48" height="48" fill="white" transform="translate(80 80)"/>
</clipPath>
</defs>
</svg>
