<svg width="128" height="128" viewBox="0 0 128 128" fill="none" xmlns="http://www.w3.org/2000/svg">
<g clip-path="url(#clip0_1140_51)">
<path d="M64 128C99.3462 128 128 99.3462 128 64C128 28.6538 99.3462 0 64 0C28.6538 0 0 28.6538 0 64C0 99.3462 28.6538 128 64 128Z" fill="#26A17B"/>
<path fill-rule="evenodd" clip-rule="evenodd" d="M71.688 69.5319V69.5239C71.248 69.5559 68.9799 69.6919 63.9199 69.6919C59.8799 69.6919 57.0359 69.5719 56.0359 69.5239V69.5359C40.4839 68.8519 28.8759 66.1439 28.8759 62.9039C28.8759 59.6679 40.4839 56.9599 56.0359 56.2639V66.8399C57.0519 66.9119 59.9639 67.0839 63.9879 67.0839C68.8159 67.0839 71.236 66.8839 71.688 66.8439V56.2719C87.208 56.9639 98.7879 59.6719 98.7879 62.9039C98.7879 66.1439 87.208 68.8439 71.688 69.5319ZM71.688 55.1719V45.7079H93.3439V31.2759H34.38V45.7079H56.0359V55.1679C38.4359 55.9759 25.2 59.4639 25.2 63.6399C25.2 67.8159 38.4359 71.2999 56.0359 72.1119V102.44H71.688V72.1039C89.26 71.2959 102.464 67.8119 102.464 63.6399C102.464 59.4679 89.26 55.9839 71.688 55.1719Z" fill="white"/>
<g clip-path="url(#clip1_1140_51)">
<path d="M104 128C117.255 128 128 117.255 128 104C128 90.7452 117.255 80 104 80C90.7452 80 80 90.7452 80 104C80 117.255 90.7452 128 104 128Z" fill="#6F41D8"/>
<path d="M111.638 99.0395C111.084 98.717 110.366 98.717 109.757 99.0395L105.438 101.521L102.506 103.138L98.1875 105.617C97.634 105.941 96.9155 105.941 96.3065 105.617L92.8745 103.676C92.321 103.354 91.934 102.761 91.934 102.113V98.285C91.934 97.6385 92.2655 97.046 92.8745 96.722L96.2495 94.835C96.8045 94.511 97.5245 94.511 98.1335 94.835L101.508 96.722C102.063 97.046 102.45 97.6385 102.45 98.285V100.766L105.383 99.0935V96.614C105.386 96.292 105.3 95.9753 105.134 95.6994C104.968 95.4234 104.729 95.199 104.442 95.051L98.1875 91.493C97.634 91.169 96.9155 91.169 96.3065 91.493L89.9405 95.051C89.6544 95.199 89.415 95.4234 89.249 95.6994C89.0829 95.9753 88.9967 96.292 89 96.614V103.784C89 104.432 89.3315 105.025 89.9405 105.349L96.3065 108.906C96.86 109.229 97.58 109.229 98.1875 108.906L102.506 106.479L105.438 104.808L109.757 102.383C110.31 102.059 111.029 102.059 111.638 102.383L115.014 104.27C115.569 104.593 115.955 105.185 115.955 105.833V109.661C115.955 110.308 115.625 110.9 115.014 111.224L111.639 113.165C111.084 113.489 110.364 113.489 109.757 113.165L106.38 111.278C105.825 110.954 105.438 110.361 105.438 109.715V107.234L102.506 108.906V111.386C102.506 112.032 102.837 112.626 103.446 112.949L109.812 116.507C110.366 116.831 111.084 116.831 111.693 116.507L118.059 112.949C118.613 112.626 119 112.034 119 111.386V104.216C119.003 103.894 118.917 103.577 118.751 103.301C118.585 103.025 118.346 102.801 118.059 102.653L111.639 99.0395H111.638Z" fill="white"/>
</g>
</g>
<defs>
<clipPath id="clip0_1140_51">
<rect width="128" height="128" fill="white"/>
</clipPath>
<clipPath id="clip1_1140_51">
<rect width="48" height="48" fill="white" transform="translate(80 80)"/>
</clipPath>
</defs>
</svg>
