<svg width="128" height="128" viewBox="0 0 128 128" fill="none" xmlns="http://www.w3.org/2000/svg">
<g clip-path="url(#clip0_1140_37)">
<path d="M64 128C99.3462 128 128 99.3462 128 64C128 28.6538 99.3462 0 64 0C28.6538 0 0 28.6538 0 64C0 99.3462 28.6538 128 64 128Z" fill="#26A17B"/>
<path fill-rule="evenodd" clip-rule="evenodd" d="M71.688 69.5319V69.5239C71.248 69.5559 68.9799 69.6919 63.9199 69.6919C59.8799 69.6919 57.0359 69.5719 56.0359 69.5239V69.5359C40.4839 68.8519 28.8759 66.1439 28.8759 62.9039C28.8759 59.6679 40.4839 56.9599 56.0359 56.2639V66.8399C57.0519 66.9119 59.9639 67.0839 63.9879 67.0839C68.8159 67.0839 71.236 66.8839 71.688 66.8439V56.2719C87.208 56.9639 98.7879 59.6719 98.7879 62.9039C98.7879 66.1439 87.208 68.8439 71.688 69.5319ZM71.688 55.1719V45.7079H93.3439V31.2759H34.38V45.7079H56.0359V55.1679C38.4359 55.9759 25.2 59.4639 25.2 63.6399C25.2 67.8159 38.4359 71.2999 56.0359 72.1119V102.44H71.688V72.1039C89.26 71.2959 102.464 67.8119 102.464 63.6399C102.464 59.4679 89.26 55.9839 71.688 55.1719Z" fill="white"/>
<g clip-path="url(#clip1_1140_37)">
<path d="M102 126C115.255 126 126 115.255 126 102C126 88.7452 115.255 78 102 78C88.7452 78 78 88.7452 78 102C78 115.255 88.7452 126 102 126Z" fill="#66F9A1"/>
<path d="M92.8875 107.531C93.0533 107.367 93.277 107.275 93.51 107.276H115.059C115.146 107.274 115.231 107.299 115.304 107.347C115.376 107.395 115.433 107.463 115.466 107.543C115.5 107.623 115.508 107.712 115.491 107.797C115.474 107.882 115.431 107.96 115.369 108.021L111.112 112.244C110.947 112.408 110.723 112.5 110.49 112.5H88.941C88.8541 112.501 88.769 112.476 88.6965 112.428C88.624 112.38 88.5675 112.311 88.5342 112.231C88.5008 112.151 88.4922 112.062 88.5093 111.977C88.5265 111.892 88.5687 111.814 88.6305 111.753L92.8875 107.531ZM92.8875 91.755C93.0533 91.5914 93.277 91.4998 93.51 91.5H115.059C115.45 91.5 115.647 91.971 115.369 92.247L111.112 96.4695C110.947 96.6331 110.723 96.7247 110.49 96.7245H88.941C88.8544 96.7249 88.7697 96.6996 88.6975 96.6518C88.6254 96.6039 88.5691 96.5357 88.5358 96.4558C88.5025 96.3759 88.4938 96.2879 88.5106 96.203C88.5275 96.1181 88.5692 96.0401 88.6305 95.979L92.8875 91.755ZM111.112 99.5925C110.947 99.4289 110.723 99.3373 110.49 99.3375H88.941C88.8541 99.3368 88.769 99.362 88.6965 99.4099C88.624 99.4578 88.5675 99.5262 88.5342 99.6064C88.5008 99.6867 88.4922 99.775 88.5093 99.8602C88.5265 99.9453 88.5687 100.023 88.6305 100.085L92.8875 104.307C93.0525 104.471 93.2775 104.562 93.51 104.562H115.059C115.146 104.563 115.231 104.538 115.303 104.49C115.376 104.442 115.432 104.373 115.466 104.293C115.499 104.213 115.508 104.124 115.491 104.039C115.473 103.954 115.431 103.876 115.369 103.815L111.112 99.5925Z" fill="white"/>
</g>
</g>
<defs>
<clipPath id="clip0_1140_37">
<rect width="128" height="128" fill="white"/>
</clipPath>
<clipPath id="clip1_1140_37">
<rect width="48" height="48" fill="white" transform="translate(78 78)"/>
</clipPath>
</defs>
</svg>
