<svg width="141" height="140" viewBox="0 0 141 140" fill="none" xmlns="http://www.w3.org/2000/svg">
<path d="M4.5 41V93.5M4.5 41C5.49022 11.4172 16.8119 6.11961 44 4H96C124.415 6.03326 134.704 12.7514 136.5 41M4.5 41H136.5M4.5 93.5C4.76767 126.38 13.8776 135.246 44 136H96C125.297 134.548 136.301 127.65 136.5 93.5M4.5 93.5C52 112 85 113.5 136.5 93.5M136.5 93.5V41" stroke="black" stroke-width="4"/>
<path fill-rule="evenodd" clip-rule="evenodd" d="M4.5 93.5V41H136.5V93.5C85 113.5 52 112 4.5 93.5ZM50.6508 71.4417L62.3686 83.1595L56.7118 88.8164L44.994 77.0986L33.2762 88.8164L27.6193 83.1595L39.3371 71.4417L27.6193 59.7239L33.2762 54.0671L44.994 65.7849L56.7118 54.0671L62.3686 59.7239L50.6508 71.4417ZM87.3433 70.7974C87.3433 66.059 91.1845 62.2178 95.9229 62.2178C100.661 62.2178 104.502 66.059 104.502 70.7974C104.502 75.5358 100.661 79.377 95.9229 79.377C91.1845 79.377 87.3433 75.5358 87.3433 70.7974ZM95.9229 54.2178C86.7662 54.2178 79.3433 61.6407 79.3433 70.7974C79.3433 79.954 86.7662 87.377 95.9229 87.377C105.08 87.377 112.502 79.954 112.502 70.7974C112.502 61.6407 105.08 54.2178 95.9229 54.2178Z" fill="black"/>
</svg>
